<svg width="13" height="14" viewBox="0 0 13 14" fill="none" xmlns="http://www.w3.org/2000/svg">
<path d="M0.672852 2.99999V12.3333C0.672852 12.6869 0.811141 13.0261 1.0573 13.2761C1.30345 13.5262 1.63731 13.6667 1.98543 13.6667H11.1735C11.5216 13.6667 11.8555 13.5262 12.1016 13.2761C12.3478 13.0261 12.4861 12.6869 12.4861 12.3333V2.99999C12.4861 2.64637 12.3478 2.30723 12.1016 2.05719C11.8555 1.80714 11.5216 1.66666 11.1735 1.66666H9.86092V0.333328H8.54834V1.66666H4.61059V0.333328H3.29801V1.66666H1.98543C1.63731 1.66666 1.30345 1.80714 1.0573 2.05719C0.811141 2.30723 0.672852 2.64637 0.672852 2.99999ZM11.1735 12.3333H1.98543V4.33333H11.1735V12.3333Z" fill="black"/>
</svg>
