<svg width="26" height="29" viewBox="0 0 26 29" fill="none" xmlns="http://www.w3.org/2000/svg">
<path d="M0 5.61646V25.2741C0 26.0189 0.304364 26.7331 0.846136 27.2598C1.38791 27.7864 2.12271 28.0823 2.88889 28.0823H23.1111C23.8773 28.0823 24.6121 27.7864 25.1539 27.2598C25.6956 26.7331 26 26.0189 26 25.2741V5.61646C26 4.87167 25.6956 4.15739 25.1539 3.63074C24.6121 3.1041 23.8773 2.80823 23.1111 2.80823H20.2222V0H17.3333V2.80823H8.66667V0H5.77778V2.80823H2.88889C2.12271 2.80823 1.38791 3.1041 0.846136 3.63074C0.304364 4.15739 0 4.87167 0 5.61646ZM23.1111 25.2741H2.88889V8.42469H23.1111V25.2741Z" fill="black"/>
</svg>
